HIERARCHY
ROOT Hips
{
  OFFSET -0.442746 100.18 1.32669
  CHANNELS 6 Xposition Yposition Zposition Zrotation Xrotation Yrotation
  JOINT Spine
  {
    OFFSET 0 10.1816 0.1315
    CHANNELS 6 Xposition Yposition Zposition Zrotation Xrotation Yrotation
    JOINT Spine1
    {
      OFFSET 0 10.0835 -1.0008
      CHANNELS 6 Xposition Yposition Zposition Zrotation Xrotation Yrotation
      JOINT Spine2
      {
        OFFSET 0 9.1 -1.3734
        CHANNELS 6 Xposition Yposition Zposition Zrotation Xrotation Yrotation
        JOINT Neck
        {
          OFFSET 0 16.6717 -2.5162
          CHANNELS 6 Xposition Yposition Zposition Zrotation Xrotation Yrotation
          JOINT Head
          {
            OFFSET 0 9.6179 1.685
            CHANNELS 6 Xposition Yposition Zposition Zrotation Xrotation Yrotation
            JOINT HeadTop_End
            {
              OFFSET 0 17.8152 2.585
              CHANNELS 6 Xposition Yposition Zposition Zrotation Xrotation Yrotation
              End Site
              {
                OFFSET 0 0 0
              }
            }
            JOINT LeftEye
            {
              OFFSET 3.0676 6.4095 9.2836
              CHANNELS 6 Xposition Yposition Zposition Zrotation Xrotation Yrotation
              End Site
              {
                OFFSET 0 0 0
              }
            }
            JOINT RightEye
            {
              OFFSET -3.0676 6.4095 9.2835
              CHANNELS 6 Xposition Yposition Zposition Zrotation Xrotation Yrotation
              End Site
              {
                OFFSET 0 0 0
              }
            }
          }
        }
        JOINT LeftShoulder
        {
          OFFSET 4.5704 10.946 -2.628
          CHANNELS 6 Xposition Yposition Zposition Zrotation Xrotation Yrotation
          JOINT LeftArm
          {
            OFFSET 10.5924 -0.5246 -2.2321
            CHANNELS 6 Xposition Yposition Zposition Zrotation Xrotation Yrotation
            JOINT LeftForeArm
            {
              OFFSET 27.8415 -0.0001 0
              CHANNELS 6 Xposition Yposition Zposition Zrotation Xrotation Yrotation
              JOINT LeftHand
              {
                OFFSET 28.3288 0 0
                CHANNELS 6 Xposition Yposition Zposition Zrotation Xrotation Yrotation
                JOINT LeftHandThumb1
                {
                  OFFSET 2.4661 -1.575 2.6824
                  CHANNELS 6 Xposition Yposition Zposition Zrotation Xrotation Yrotation
                  JOINT LeftHandThumb2
                  {
                    OFFSET 3.2298 -1.8647 1.8647
                    CHANNELS 6 Xposition Yposition Zposition Zrotation Xrotation Yrotation
                    JOINT LeftHandThumb3
                    {
                      OFFSET 2.6526 -1.5315 1.5315
                      CHANNELS 6 Xposition Yposition Zposition Zrotation Xrotation Yrotation
                      End Site
                      {
                        OFFSET 1.9546 -1.1285 1.1285
                      }
                    }
                  }
                }
                JOINT LeftHandIndex1
                {
                  OFFSET 9.1093 -0.5171 2.2601
                  CHANNELS 6 Xposition Yposition Zposition Zrotation Xrotation Yrotation
                  JOINT LeftHandIndex2
                  {
                    OFFSET 3.6764 0 0
                    CHANNELS 6 Xposition Yposition Zposition Zrotation Xrotation Yrotation
                    JOINT LeftHandIndex3
                    {
                      OFFSET 2.8831 0 0
                      CHANNELS 6 Xposition Yposition Zposition Zrotation Xrotation Yrotation
                      End Site
                      {
                        OFFSET 2.3927 0 0
                      }
                    }
                  }
                }
                JOINT LeftHandMiddle1
                {
                  OFFSET 9.5334 0 0
                  CHANNELS 6 Xposition Yposition Zposition Zrotation Xrotation Yrotation
                  JOINT LeftHandMiddle2
                  {
                    OFFSET 3.6982 0 0
                    CHANNELS 6 Xposition Yposition Zposition Zrotation Xrotation Yrotation
                    JOINT LeftHandMiddle3
                    {
                      OFFSET 2.9509 0 0
                      CHANNELS 6 Xposition Yposition Zposition Zrotation Xrotation Yrotation
                      End Site
                      {
                        OFFSET 2.8339 0 0
                      }
                    }
                  }
                }
                JOINT LeftHandRing1
                {
                  OFFSET 9.1045 -0.0439 -1.8651
                  CHANNELS 6 Xposition Yposition Zposition Zrotation Xrotation Yrotation
                  JOINT LeftHandRing2
                  {
                    OFFSET 3.154 0 0
                    CHANNELS 6 Xposition Yposition Zposition Zrotation Xrotation Yrotation
                    JOINT LeftHandRing3
                    {
                      OFFSET 2.9377 0 0
                      CHANNELS 6 Xposition Yposition Zposition Zrotation Xrotation Yrotation
                      End Site
                      {
                        OFFSET 2.6475 0 0
                      }
                    }
                  }
                }
                JOINT LeftHandPinky1
                {
                  OFFSET 8.0778 -0.4887 -3.8061
                  CHANNELS 6 Xposition Yposition Zposition Zrotation Xrotation Yrotation
                  JOINT LeftHandPinky2
                  {
                    OFFSET 3.6 0 0
                    CHANNELS 6 Xposition Yposition Zposition Zrotation Xrotation Yrotation
                    JOINT LeftHandPinky3
                    {
                      OFFSET 2.1142 0 0
                      CHANNELS 6 Xposition Yposition Zposition Zrotation Xrotation Yrotation
                      End Site
                      {
                        OFFSET 1.9757 0 0
                      }
                    }
                  }
                }
              }
            }
          }
        }
        JOINT RightShoulder
        {
          OFFSET -4.57 10.9462 -2.628
          CHANNELS 6 Xposition Yposition Zposition Zrotation Xrotation Yrotation
          JOINT RightArm
          {
            OFFSET -10.5928 -0.5248 -2.2321
            CHANNELS 6 Xposition Yposition Zposition Zrotation Xrotation Yrotation
            JOINT RightForeArm
            {
              OFFSET -27.8415 0 0
              CHANNELS 6 Xposition Yposition Zposition Zrotation Xrotation Yrotation
              JOINT RightHand
              {
                OFFSET -28.3288 0 0.0001
                CHANNELS 6 Xposition Yposition Zposition Zrotation Xrotation Yrotation
                JOINT RightHandPinky1
                {
                  OFFSET -8.0767 -0.4885 -3.806
                  CHANNELS 6 Xposition Yposition Zposition Zrotation Xrotation Yrotation
                  JOINT RightHandPinky2
                  {
                    OFFSET -3.6 0 0.0001
                    CHANNELS 6 Xposition Yposition Zposition Zrotation Xrotation Yrotation
                    JOINT RightHandPinky3
                    {
                      OFFSET -2.1142 0 0
                      CHANNELS 6 Xposition Yposition Zposition Zrotation Xrotation Yrotation
                      End Site
                      {
                        OFFSET -1.9757 0 0
                      }
                    }
                  }
                }
                JOINT RightHandRing1
                {
                  OFFSET -9.1036 -0.0439 -1.8651
                  CHANNELS 6 Xposition Yposition Zposition Zrotation Xrotation Yrotation
                  JOINT RightHandRing2
                  {
                    OFFSET -3.154 0 0
                    CHANNELS 6 Xposition Yposition Zposition Zrotation Xrotation Yrotation
                    JOINT RightHandRing3
                    {
                      OFFSET -2.9377 0 0
                      CHANNELS 6 Xposition Yposition Zposition Zrotation Xrotation Yrotation
                      End Site
                      {
                        OFFSET -2.6475 0 0
                      }
                    }
                  }
                }
                JOINT RightHandMiddle1
                {
                  OFFSET -9.5325 0 0
                  CHANNELS 6 Xposition Yposition Zposition Zrotation Xrotation Yrotation
                  JOINT RightHandMiddle2
                  {
                    OFFSET -3.6982 0 0
                    CHANNELS 6 Xposition Yposition Zposition Zrotation Xrotation Yrotation
                    JOINT RightHandMiddle3
                    {
                      OFFSET -2.9509 0 0
                      CHANNELS 6 Xposition Yposition Zposition Zrotation Xrotation Yrotation
                      End Site
                      {
                        OFFSET -2.8339 0 0.0001
                      }
                    }
                  }
                }
                JOINT RightHandIndex1
                {
                  OFFSET -9.1083 -0.5168 2.2601
                  CHANNELS 6 Xposition Yposition Zposition Zrotation Xrotation Yrotation
                  JOINT RightHandIndex2
                  {
                    OFFSET -3.6764 0 0
                    CHANNELS 6 Xposition Yposition Zposition Zrotation Xrotation Yrotation
                    JOINT RightHandIndex3
                    {
                      OFFSET -2.8831 0 0
                      CHANNELS 6 Xposition Yposition Zposition Zrotation Xrotation Yrotation
                      End Site
                      {
                        OFFSET -2.3927 0 0
                      }
                    }
                  }
                }
                JOINT RightHandThumb1
                {
                  OFFSET -2.4648 -1.5727 2.6826
                  CHANNELS 6 Xposition Yposition Zposition Zrotation Xrotation Yrotation
                  JOINT RightHandThumb2
                  {
                    OFFSET -3.2298 -1.8647 1.8647
                    CHANNELS 6 Xposition Yposition Zposition Zrotation Xrotation Yrotation
                    JOINT RightHandThumb3
                    {
                      OFFSET -2.6526 -1.5314 1.5314
                      CHANNELS 6 Xposition Yposition Zposition Zrotation Xrotation Yrotation
                      End Site
                      {
                        OFFSET -1.9546 -1.1285 1.1285
                      }
                    }
                  }
                }
              }
            }
          }
        }
      }
    }
  }
  JOINT LeftUpLeg
  {
    OFFSET 8.2078 -6.7517 -1.5996
    CHANNELS 6 Xposition Yposition Zposition Zrotation Xrotation Yrotation
    JOINT LeftLeg
    {
      OFFSET 0 -44.3705 0.2846
      CHANNELS 6 Xposition Yposition Zposition Zrotation Xrotation Yrotation
      JOINT LeftFoot
      {
        OFFSET 0 -44.4279 -2.9822
        CHANNELS 6 Xposition Yposition Zposition Zrotation Xrotation Yrotation
        JOINT LeftToeBase
        {
          OFFSET 0 -8.7287 10.7106
          CHANNELS 6 Xposition Yposition Zposition Zrotation Xrotation Yrotation
          End Site
          {
            OFFSET 0 -0.0007 9.2781
          }
        }
      }
    }
  }
  JOINT RightUpLeg
  {
    OFFSET -8.2078 -6.7517 -1.5996
    CHANNELS 6 Xposition Yposition Zposition Zrotation Xrotation Yrotation
    JOINT RightLeg
    {
      OFFSET 0 -44.3705 0.2862
      CHANNELS 6 Xposition Yposition Zposition Zrotation Xrotation Yrotation
      JOINT RightFoot
      {
        OFFSET 0 -44.4277 -2.9838
        CHANNELS 6 Xposition Yposition Zposition Zrotation Xrotation Yrotation
        JOINT RightToeBase
        {
          OFFSET 0 -8.7287 10.7106
          CHANNELS 6 Xposition Yposition Zposition Zrotation Xrotation Yrotation
          End Site
          {
            OFFSET 0 -0.0007 9.2781
          }
        }
      }
    }
  }
}
MOTION
Frames:	4
Frame Time:	0.0333333
-3.96645 102.468 -1.21744 4.24035 -10.1734 -12.8749 0 10.1816 0.1315 -4.80444 4.62109 1.27705 -8.88178e-016 10.0835 -1.0008 -1.24428 -0.536874 0.379673 0 9.1 -1.3734 -1.2508 -0.540764 0.402068 -8.88178e-016 16.6717 -2.5162 -0.541304 -4.40808 1.67413 0 9.6179 1.685 7.53145 -48.9536 23.7978 7.10543e-015 17.8152 2.585 -2.38542e-015 -3.18055e-015 7.95139e-016 3.0676 6.4095 9.2836 -2.38542e-015 -3.18055e-015 7.95139e-016 -3.0676 6.4095 9.2835 -2.38542e-015 -3.18055e-015 7.95139e-016 4.5704 10.946 -2.628 -7.43353 -17.2968 10.6054 10.5924 -0.5246 -2.2321 -45.3489 -24.5059 -29.6711 27.8415 -0.0001 2.84217e-014 -0.000179663 1.33579e-005 -65.8035 28.3288 7.10543e-015 1.42109e-014 31.4003 20.1254 -22.4689 2.4661 -1.575 2.6824 18.6427 -3.76445 3.06564 3.2298 -1.8647 1.8647 -7.2365 12.8393 29.8693 2.6526 -1.5315 1.5315 4.41276 -7.43668 23.3253 9.1093 -0.5171 2.2601 -15.5045 -0.783005 4.14908 3.6764 0 -1.42109e-014 -78.5897 -4.69809 5.73942 2.8831 -2.84217e-014 0 14.9208 -0.197128 -1.50526 9.5334 1.06581e-014 7.10543e-015 -32.4587 -2.12911 6.49421 3.6982 0 -7.10543e-015 -89.3744 -5.79173 5.85519 2.9509 0 0 14.9208 -0.19712 -1.50526 9.1045 -0.0439 -1.8651 -32.4587 -2.12911 6.49421 3.154 -1.42109e-014 7.10543e-015 -89.3744 -5.79173 5.85519 2.9377 1.42109e-014 0 14.9208 -0.19712 -1.50526 8.0778 -0.4887 -3.8061 -32.46 -2.11762 6.49416 3.6 -1.42109e-014 0 -89.3744 -5.79173 5.85521 2.1142 -2.84217e-014 -7.10543e-015 14.9208 -0.197134 -1.50525 -4.57 10.9462 -2.628 9.51809 -0.355032 -5.61263 -10.5928 -0.5248 -2.2321 40.397 -3.46204 44.3511 -27.8415 -1.42109e-014 0 -2.17233e-005 1.12514e-005 51.9372 -28.3288 0 0.0001 -22.2444 20.5447 1.83818 -8.0767 -0.4885 -3.806 40.7028 -2.58427 -5.95693 -3.6 2.84217e-014 0.0001 71.1007 -3.13983 -4.39424 -2.1142 0 0 0.964342 -0.000659071 -0.0781222 -9.1036 -0.0439 -1.8651 40.7035 -2.57819 -5.9553 -3.154 2.84217e-014 0 71.1007 -3.14133 -4.39476 -2.9377 0 7.10543e-015 0.964361 -0.00065998 -0.0780962 -9.5325 -1.42109e-014 -1.42109e-014 40.7035 -2.57819 -5.9553 -3.6982 0 0 71.1007 -3.14133 -4.39476 -2.9509 7.10543e-015 7.10543e-015 0.964364 -0.000662857 -0.0801171 -9.1083 -0.5168 2.2601 30.6468 -1.77288 -4.6619 -3.6764 2.84217e-014 0 55.8739 -2.03924 -3.84442 -2.8831 0 7.10543e-015 0.954997 -0.00065139 -0.0773448 -2.4648 -1.5727 2.6826 -8.08127 -6.15872 6.23674 -3.2298 -1.8647 1.8647 0.040589 21.341 -40.9375 -2.6526 -1.5314 1.5314 -18.6193 2.30833 -3.65107 8.2078 -6.7517 -1.5996 4.86169 -11.1057 12.9115 0 -44.3705 0.2846 -3.73908 30.2964 -3.29952 1.77636e-015 -44.4279 -2.9822 -1.13179 4.1543 -0.104501 0 -8.7287 10.7106 -9.58926e-007 -10.1738 9.69348e-007 -8.2078 -6.7517 -1.5996 -10.1312 1.3252 -10.7852 -1.77636e-015 -44.3705 0.2862 1.95745 24.7735 -3.59764 0 -44.4277 -2.9838 -0.996872 -15.6037 -0.128271 -1.77636e-015 -8.7287 10.7106 -5.11698e-007 -5.63841 6.43364e-006 
-3.97873 102.061 -2.75728 4.3109 -8.25585 -13.3365 -8.88178e-016 10.1816 0.1315 -5.42025 5.39939 1.52896 -1.77636e-015 10.0835 -1.0008 -1.20199 -0.264798 0.454803 -8.88178e-016 9.1 -1.3734 -1.20967 -0.269088 0.475793 0 16.6717 -2.5162 -0.530288 -4.38091 1.58998 0 9.6179 1.685 8.52719 -52.8753 23.6558 -7.10543e-015 17.8152 2.585 -3.97569e-016 -3.18055e-015 -1.39149e-015 3.0676 6.4095 9.2836 -3.97569e-016 -3.18055e-015 -1.39149e-015 -3.0676 6.4095 9.2835 -3.97569e-016 -3.18055e-015 -1.39149e-015 4.5704 10.946 -2.628 -7.52127 -16.02 10.1778 10.5924 -0.5246 -2.2321 -46.4587 -28.0953 -30.1586 27.8415 -0.0001 -1.42109e-014 -0.000185558 8.35953e-006 -64.9861 28.3288 0 0 30.2363 18.6396 -21.7788 2.4661 -1.575 2.6824 18.6427 -3.76447 3.06564 3.2298 -1.8647 1.8647 -7.23653 12.8394 29.8693 2.6526 -1.5315 1.5315 4.41276 -7.4367 23.3253 9.1093 -0.5171 2.2601 -15.5045 -0.783 4.14907 3.6764 -1.42109e-014 -7.10543e-015 -78.5897 -4.6981 5.73942 2.8831 0 -7.10543e-015 14.9208 -0.197129 -1.50527 9.5334 -3.55271e-015 1.06581e-014 -32.4588 -2.12914 6.49346 3.6982 0 7.10543e-015 -89.3744 -5.79173 5.8552 2.9509 -1.42109e-014 0 14.9208 -0.197122 -1.50525 9.1045 -0.0439 -1.8651 -32.4588 -2.12914 6.49346 3.154 0 -7.10543e-015 -89.3744 -5.79173 5.8552 2.9377 0 0 14.9208 -0.197122 -1.50525 8.0778 -0.4887 -3.8061 -32.4599 -2.11955 6.49343 3.6 1.42109e-014 -7.10543e-015 -89.3744 -5.79171 5.8552 2.1142 0 -1.42109e-014 14.9208 -0.197126 -1.50526 -4.57 10.9462 -2.628 9.25636 -0.364454 -5.53728 -10.5928 -0.5248 -2.2321 40.4764 -3.89907 43.9486 -27.8415 0 0 -4.19793e-006 -5.23708e-006 51.2451 -28.3288 1.42109e-014 0.0001 -22.3081 19.5204 1.60192 -8.0767 -0.4885 -3.806 40.4263 -2.55619 -5.94718 -3.6 -2.84217e-014 0.0001 71.1007 -3.13983 -4.39424 -2.1142 0 0 0.0754057 -4.56218e-006 -0.00611213 -9.1036 -0.0439 -1.8651 40.4265 -2.55501 -5.94558 -3.154 0 7.10543e-015 71.1007 -3.14133 -4.39476 -2.9377 0 0 0.0754279 -9.47216e-006 -0.00609674 -9.5325 1.42109e-014 0 40.4265 -2.55501 -5.94558 -3.6982 0 -1.42109e-014 71.1007 -3.14133 -4.39476 -2.9509 0 -7.10543e-015 0.0754256 -1.08043e-005 -0.00811908 -9.1083 -0.5168 2.2601 30.3698 -1.75183 -4.64795 -3.6764 0 -7.10543e-015 55.8739 -2.03924 -3.84442 -2.8831 0 0 0.0660495 -3.11386e-006 -0.00533951 -2.4648 -1.5727 2.6826 -8.27497 -5.73818 6.40365 -3.2298 -1.8647 1.8647 0.0489504 21.672 -40.8726 -2.6526 -1.5314 1.5314 -18.6643 2.11996 -3.23975 8.2078 -6.7517 -1.5996 4.7635 -13.1443 12.4103 0 -44.3705 0.2846 -4.04471 30.4896 -1.77873 0 -44.4279 -2.9822 -1.15324 3.81785 0.248904 -1.77636e-015 -8.7287 10.7106 7.9846e-007 -10.6072 -3.43438e-006 -8.2078 -6.7517 -1.5996 -9.81469 -2.9849 -11.1344 -1.77636e-015 -44.3705 0.2862 2.00487 27.2917 -3.35931 -1.77636e-015 -44.4277 -2.9838 -1.58608 -15.8292 -0.206061 -1.77636e-015 -8.7287 10.7106 -2.46411e-007 -5.63841 -2.99732e-007 
-3.67763 101.578 -3.71692 3.82387 -7.71223 -13.754 0 10.1816 0.1315 -5.49434 6.41382 1.84431 0 10.0835 -1.0008 -1.039 -0.102495 0.536269 0 9.1 -1.3734 -1.0472 -0.106149 0.554407 -1.77636e-015 16.6717 -2.5162 -0.477196 -3.94211 1.48991 0 9.6179 1.685 8.533 -54.2779 22.3886 0 17.8152 2.585 1.59028e-015 6.36111e-015 -1.39149e-015 3.0676 6.4095 9.2836 1.59028e-015 6.36111e-015 -1.39149e-015 -3.0676 6.4095 9.2835 1.59028e-015 6.36111e-015 -1.39149e-015 4.5704 10.946 -2.628 -7.97224 -14.5789 9.49655 10.5924 -0.5246 -2.2321 -47.5053 -30.5443 -29.8739 27.8415 -0.0001 1.42109e-014 -0.00020548 7.80852e-006 -63.4217 28.3288 1.42109e-014 -1.42109e-014 29.1562 18.0487 -21.262 2.4661 -1.575 2.6824 18.6427 -3.76446 3.06565 3.2298 -1.8647 1.8647 -7.2365 12.8393 29.8693 2.6526 -1.5315 1.5315 4.41276 -7.43669 23.3253 9.1093 -0.5171 2.2601 -15.5045 -0.783011 4.14908 3.6764 -1.42109e-014 -7.10543e-015 -78.5897 -4.6981 5.73946 2.8831 0 0 14.9208 -0.19713 -1.50528 9.5334 3.55271e-015 3.55271e-015 -32.459 -2.12915 6.49182 3.6982 1.42109e-014 0 -89.3744 -5.79172 5.85519 2.9509 0 7.10543e-015 14.9208 -0.197135 -1.50524 9.1045 -0.0439 -1.8651 -32.459 -2.12915 6.49182 3.154 -2.84217e-014 7.10543e-015 -89.3744 -5.79172 5.85519 2.9377 0 -7.10543e-015 14.9208 -0.197135 -1.50524 8.0778 -0.4887 -3.8061 -32.4598 -2.12218 6.49179 3.6 -2.84217e-014 -7.10543e-015 -89.3744 -5.79172 5.85521 2.1142 -1.42109e-014 7.10543e-015 14.9208 -0.197124 -1.50526 -4.57 10.9462 -2.628 9.13662 -0.364428 -5.50775 -10.5928 -0.5248 -2.2321 41.3024 -4.01336 43.2823 -27.8415 -1.42109e-014 -7.10543e-015 -1.23268e-005 3.45831e-006 49.5477 -28.3288 0 0.0001 -22.3227 18.8199 1.89039 -8.0767 -0.4885 -3.806 40.5384 -2.56717 -5.95126 -3.6 0 0.0001 71.1007 -3.13983 -4.39424 -2.1142 7.10543e-015 0 0.435597 -0.000135456 -0.0352785 -9.1036 -0.0439 -1.8651 40.5387 -2.5644 -5.94965 -3.154 0 7.10543e-015 71.1007 -3.14133 -4.39476 -2.9377 0 -7.10543e-015 0.435595 -0.000141988 -0.0352723 -9.5325 0 7.10543e-015 40.5387 -2.5644 -5.94965 -3.6982 -2.84217e-014 -7.10543e-015 71.1007 -3.14133 -4.39476 -2.9509 -7.10543e-015 -1.42109e-014 0.435595 -0.000142748 -0.0372928 -9.1083 -0.5168 2.2601 30.482 -1.76035 -4.65362 -3.6764 0 1.42109e-014 55.8739 -2.03924 -3.84442 -2.8831 0 0 0.426224 -0.000126071 -0.0345113 -2.4648 -1.5727 2.6826 -8.19641 -5.90847 6.33575 -3.2298 -1.8647 1.8647 0.0456156 21.5378 -40.8987 -2.6526 -1.5314 1.5314 -18.6462 2.19591 -3.40656 8.2078 -6.7517 -1.5996 4.33942 -12.0355 11.8281 -1.77636e-015 -44.3705 0.2846 -4.49488 29.0376 -0.00897693 1.77636e-015 -44.4279 -2.9822 -0.983664 2.09402 0.0407034 -1.77636e-015 -8.7287 10.7106 1.64768e-007 -10.3593 8.6745e-007 -8.2078 -6.7517 -1.5996 -9.52332 -5.24326 -11.3507 -1.77636e-015 -44.3705 0.2862 2.05189 29.5237 -3.01933 -1.77636e-015 -44.4277 -2.9838 -1.83481 -16.2696 -0.241895 0 -8.7287 10.7106 9.55228e-007 -5.6384 3.53272e-006 
-3.07044 101.282 -4.15924 3.27021 -7.07206 -13.7308 0 10.1816 0.1315 -5.03047 6.64501 1.54957 0 10.0835 -1.0008 -0.896516 -0.0887772 0.451651 8.88178e-016 9.1 -1.3734 -0.904321 -0.0908098 0.467521 0 16.6717 -2.5162 -0.408325 -3.52284 1.44091 0 9.6179 1.685 8.22302 -53.8038 21.2271 -7.10543e-015 17.8152 2.585 7.95139e-016 -3.18055e-015 -7.95139e-016 3.0676 6.4095 9.2836 7.95139e-016 -3.18055e-015 -7.95139e-016 -3.0676 6.4095 9.2835 7.95139e-016 -3.18055e-015 -7.95139e-016 4.5704 10.946 -2.628 -8.69906 -13.0643 9.0481 10.5924 -0.5246 -2.2321 -47.9899 -32.0439 -28.2414 27.8415 -0.0001 0 -0.000201328 -3.78169e-006 -62.2683 28.3288 -7.10543e-015 1.42109e-014 28.7279 17.5968 -21.0529 2.4661 -1.575 2.6824 18.6427 -3.76443 3.06565 3.2298 -1.8647 1.8647 -7.2365 12.8393 29.8693 2.6526 -1.5315 1.5315 4.41276 -7.43669 23.3253 9.1093 -0.5171 2.2601 -15.5045 -0.782995 4.14907 3.6764 0 7.10543e-015 -78.5896 -4.69811 5.73945 2.8831 0 0 14.9208 -0.197125 -1.50526 9.5334 -3.55271e-015 0 -32.4592 -2.12917 6.48976 3.6982 0 -1.42109e-014 -89.3744 -5.79171 5.85521 2.9509 1.42109e-014 7.10543e-015 14.9208 -0.19712 -1.50525 9.1045 -0.0439 -1.8651 -32.4592 -2.12917 6.48976 3.154 0 0 -89.3744 -5.79171 5.85521 2.9377 0 -1.42109e-014 14.9208 -0.19712 -1.50525 8.0778 -0.4887 -3.8061 -32.4596 -2.1255 6.48973 3.6 1.42109e-014 -2.13163e-014 -89.3744 -5.79174 5.8552 2.1142 -1.42109e-014 7.10543e-015 14.9208 -0.197115 -1.50527 -4.57 10.9462 -2.628 9.38807 -0.36001 -5.62289 -10.5928 -0.5248 -2.2321 42.8808 -3.74386 42.2282 -27.8415 0 1.42109e-014 1.2553e-005 -1.36571e-005 48.4593 -28.3288 1.42109e-014 0.0001 -21.9162 18.3299 2.08215 -8.0767 -0.4885 -3.806 41.0686 -2.62241 -5.97008 -3.6 2.84217e-014 0.0001 71.1007 -3.13983 -4.39424 -2.1142 7.10543e-015 7.10543e-015 2.14083 -0.00323294 -0.173349 -9.1036 -0.0439 -1.8651 41.07 -2.60893 -5.96842 -3.154 0 7.10543e-015 71.1007 -3.14133 -4.39476 -2.9377 0 1.42109e-014 2.14081 -0.00323556 -0.173358 -9.5325 2.84217e-014 1.42109e-014 41.07 -2.60893 -5.96842 -3.6982 2.84217e-014 0 71.1007 -3.14133 -4.39476 -2.9509 0 0 2.14082 -0.00324181 -0.175372 -9.1083 -0.5168 2.2601 31.0133 -1.80086 -4.68027 -3.6764 2.84217e-014 1.42109e-014 55.8739 -2.03924 -3.84442 -2.8831 0 7.10543e-015 2.13145 -0.0032163 -0.172598 -2.4648 -1.5727 2.6826 -7.82583 -6.71634 6.01893 -3.2298 -1.8647 1.8647 0.0287822 20.9031 -41.0249 -2.6526 -1.5314 1.5314 -18.5581 2.55777 -4.19552 8.2078 -6.7517 -1.5996 4.08581 -11.0197 11.4625 0 -44.3705 0.2846 -4.83702 27.6856 0.926543 0 -44.4279 -2.9822 -0.607709 -2.48226 -0.143465 1.77636e-015 -8.7287 10.7106 -6.50288e-008 -8.04083 9.388e-007 -8.2078 -6.7517 -1.5996 -9.2133 -6.64988 -11.5248 1.77636e-015 -44.3705 0.2862 2.07643 30.5732 -3.04139 -1.77636e-015 -44.4277 -2.9838 -1.66776 -16.3407 -0.214563 0 -8.7287 10.7106 6.0198e-008 -5.6384 -9.76632e-008 
